# xmcd CD database file
#
# Track frame offsets:
#	150
#	14433
#	26764
#	37087
#	51578
#	66005
#	77611
#	89815
#	103764
#	115334
#	133201
#	143282
#	165535
#	176547
#	186626
#	202763
#	213759
#	225316
#
# Disc length: 3152 seconds
#
# Revision: 0
# Processed by: cddbd v1.5.2PL0 Copyright (c) Steve Scherf et al.
# Submitted via: CDex 1.51
#
DISCID=fb0c4e12
DTITLE=THG Jazz Band - Between The Lines
DYEAR=1995
DGENRE=Jazz
TTITLE0=Alright okay you win
TTITLE1=A day in the life of a fool
TTITLE2=How high the moon
TTITLE3=Basin street blues
TTITLE4=Satin Doll
TTITLE5=My favorite things
TTITLE6=Don't cry for me Argentina
TTITLE7=Hello Dolly
TTITLE8=Watermelon man
TTITLE9=My funny valentine
TTITLE10=Leap frog
TTITLE11=St. Louis Blues
TTITLE12=Blueberry hill
TTITLE13=The girl from Ipanema
TTITLE14=Do you know what it means to miss New Orleans?
TTITLE15=A night in Tunisia
TTITLE16=Mercy mercy mercy
TTITLE17=California Dreamin'
EXTD=YEAR: 1995
EXTT0=
EXTT1=
EXTT2=
EXTT3=
EXTT4=
EXTT5=
EXTT6=
EXTT7=
EXTT8=
EXTT9=
EXTT10=
EXTT11=
EXTT12=
EXTT13=
EXTT14=
EXTT15=
EXTT16=
EXTT17=
PLAYORDER=
